<svg width="30" height="24" viewBox="0 0 30 24" fill="none" xmlns="http://www.w3.org/2000/svg">
<path d="M27 0H3C1.35 0 0.015 1.35 0.015 3L0 21C0 22.65 1.35 24 3 24H27C28.65 24 30 22.65 30 21V3C30 1.35 28.65 0 27 0ZM27 5.295C27 5.73357 26.7741 6.14121 26.4022 6.37365L21.36 9.52501C17.4687 11.957 12.5313 11.957 8.64001 9.52501L3.59784 6.37365C3.22593 6.14121 3 5.73357 3 5.295C3 4.29593 4.09894 3.68684 4.94616 4.21635L11.9126 8.57039C13.8016 9.75099 16.1984 9.75099 18.0874 8.57039L25.0538 4.21635C25.9011 3.68684 27 4.29593 27 5.295Z" fill="black"/>
</svg>
